<svg id="Layer_1" data-name="Layer 1" xmlns="http://www.w3.org/2000/svg" viewBox="0 0 172.38 113.49"><path d="M66.18,81.72c3.38,6.09,6.64,12.24,10,18.36Q89.08,123.8,102,147.51c3.92,7.17,7.85,14.32,12,21.82.38-.61.54-.89.79-1.29q6-11.07,12.08-22.13,18.78-34.48,37.53-69c1.11-2,2.11-2.79,4.78-2.91a62.26,62.26,0,0,1,7.16.6c17.78,2.81,31.67,11.7,41.08,27.1,7,11.46,10,24.1,7.47,37.31-4.06,21.47-17.39,35.44-37.47,43.26-6.82,2.66-14,3.2-21.23,3.27-12.66.12-25.32,0-38,0-.95,0-2.79,0-2.79,0h-4.14l4.82-9.89s.21,2.49,2.15,2.51c13.86.08,26.51.06,40.37,0a47.69,47.69,0,0,0,7.16-.59,50,50,0,0,0,29.83-16q16.47-17.87,11.41-41.45a47.88,47.88,0,0,0-17.32-27.77,48.7,48.7,0,0,0-26.56-10.68c-2.25-.21-3.32.7-4.29,2.5-8.31,15.44-16.69,30.84-25,46.27-8.18,15.14-16.28,30.33-24.54,45.43-1.65,3-2.87,5.08-5.13,9.15-1.51-2.66-2.67-4.89-4-7.25q-6.57-12-13.09-24-8.44-15.51-16.87-31Q67.16,98.72,54.13,74.64c-1.25-2.3-1.08-2.52,1.51-2.52H61Z" transform="translate(-53.37 -72.12)"/></svg>